<?xml version="1.0" encoding="utf-8"?>
<!-- Generator: Adobe Illustrator 18.0.0, SVG Export Plug-In . SVG Version: 6.00 Build 0)  -->
<!DOCTYPE svg PUBLIC "-//W3C//DTD SVG 1.1//EN" "http://www.w3.org/Graphics/SVG/1.1/DTD/svg11.dtd">
<svg version="1.1" id="Layer_1" xmlns="http://www.w3.org/2000/svg" xmlns:xlink="http://www.w3.org/1999/xlink" x="0px" y="0px"
	 viewBox="0 0 136.7 31.7" enable-background="new 0 0 136.7 31.7" xml:space="preserve">
<g>
	<g>
		<g>
			<g>
				<g>
					<circle fill="#CC0000" cx="15.8" cy="15.8" r="15.8"/>
					<g>
						<path fill="#FF9900" d="M36.9,0c-4.1,0-7.8,1.5-10.6,4.1c-0.6,0.5-1.1,1.1-1.6,1.7h3.2c0.4,0.5,0.8,1.1,1.2,1.7h-5.6
							c-0.3,0.5-0.6,1.1-0.9,1.7H30c0.3,0.5,0.5,1.1,0.7,1.7H22c-0.2,0.5-0.3,1.1-0.5,1.7h9.6c0.2,1.1,0.4,2.2,0.4,3.3
							c0,1.7-0.3,3.4-0.8,5H22c0.2,0.6,0.4,1.1,0.7,1.7H30c-0.3,0.6-0.6,1.1-0.9,1.7h-5.6c0.4,0.6,0.8,1.1,1.2,1.7h3.2
							c-0.5,0.6-1,1.2-1.6,1.7c2.8,2.5,6.5,4.1,10.6,4.1c8.7,0,15.8-7.1,15.8-15.8C52.6,7.1,45.6,0,36.9,0z"/>
					</g>
				</g>
				<path d="M50.5,24.5c0-0.3,0.2-0.5,0.5-0.5c0.3,0,0.5,0.2,0.5,0.5c0,0.3-0.2,0.5-0.5,0.5C50.8,25,50.5,24.8,50.5,24.5z
					 M51.1,24.9c0.2,0,0.4-0.2,0.4-0.4c0-0.2-0.2-0.4-0.4-0.4c-0.2,0-0.4,0.2-0.4,0.4C50.7,24.7,50.8,24.9,51.1,24.9z M51,24.8h-0.1
					v-0.4h0.2c0,0,0.1,0,0.1,0c0,0,0.1,0.1,0.1,0.1c0,0,0,0.1-0.1,0.1l0.1,0.2h-0.1l-0.1-0.2H51V24.8z M51,24.5L51,24.5
					c0.1,0,0.1,0,0.1,0c0,0,0,0,0-0.1c0,0,0,0,0,0c0,0,0,0-0.1,0H51V24.5z"/>
			</g>
			<g>
				<g>
					<path d="M12.1,17.5c-0.2,0-0.3,0-0.4,0c-1,0-1.5,0.3-1.5,1c0,0.4,0.2,0.7,0.6,0.7C11.5,19.1,12,18.4,12.1,17.5z M13.3,20.4
						c-0.2,0-1.4,0-1.4,0l0-0.7c-0.4,0.5-1,0.8-1.8,0.8c-0.9,0-1.6-0.7-1.6-1.8c0-1.6,1.1-2.5,3-2.5c0.2,0,0.4,0,0.7,0
						c0.1-0.2,0.1-0.3,0.1-0.4c0-0.4-0.3-0.6-1.1-0.6c-0.8,0-1.5,0.2-1.8,0.3c0-0.1,0.2-1.5,0.2-1.5c0.9-0.3,1.4-0.3,2-0.3
						c1.5,0,2.2,0.7,2.2,1.9c0,0.3-0.1,0.7-0.1,1.3C13.7,17.9,13.4,19.9,13.3,20.4z"/>
					<polygon points="7.9,20.4 6.2,20.4 7.1,14.2 4.9,20.4 3.8,20.4 3.6,14.3 2.6,20.4 1,20.4 2.3,12.4 4.8,12.4 5,16.9 6.5,12.4 
						9.2,12.4 					"/>
					<path d="M39,17.5c-0.2,0-0.3,0-0.4,0c-1,0-1.5,0.3-1.5,1c0,0.4,0.2,0.7,0.6,0.7C38.5,19.1,39,18.4,39,17.5z M40.3,20.4
						c-0.2,0-1.4,0-1.4,0l0-0.7c-0.4,0.5-1,0.8-1.8,0.8c-0.9,0-1.6-0.7-1.6-1.8c0-1.6,1.1-2.5,3-2.5c0.2,0,0.4,0,0.7,0
						c0.1-0.2,0.1-0.3,0.1-0.4c0-0.4-0.3-0.6-1.1-0.6c-0.8,0-1.5,0.2-1.8,0.3c0-0.1,0.2-1.5,0.2-1.5c0.9-0.3,1.4-0.3,2-0.3
						c1.5,0,2.2,0.7,2.2,1.9c0,0.3-0.1,0.7-0.1,1.3C40.6,17.9,40.3,19.9,40.3,20.4z"/>
					<path d="M20.9,20.3c-0.5,0.1-0.8,0.2-1.2,0.2c-0.9,0-1.4-0.5-1.4-1.4c0-0.3,0.1-1,0.2-1.7c0.1-0.6,0.7-4.4,0.7-4.4H21l-0.2,1h1
						l-0.2,1.6h-1c-0.2,1.2-0.5,2.8-0.5,3c0,0.3,0.2,0.5,0.6,0.5c0.2,0,0.3,0,0.5-0.1L20.9,20.3z"/>
					<path d="M26.1,20.2c-0.6,0.2-1.1,0.3-1.7,0.3c-1.9,0-2.9-1-2.9-2.9c0-2.2,1.3-3.9,3-3.9c1.4,0,2.3,0.9,2.3,2.4
						c0,0.5-0.1,0.9-0.2,1.6h-3.4c-0.1,0.9,0.5,1.3,1.5,1.3c0.6,0,1.2-0.1,1.8-0.4L26.1,20.2z M25.2,16.4c0-0.1,0.2-1.2-0.8-1.2
						c-0.5,0-0.9,0.4-1.1,1.2H25.2z"/>
					<path d="M14.3,15.9c0,0.8,0.4,1.4,1.3,1.8c0.7,0.3,0.8,0.4,0.8,0.7c0,0.4-0.3,0.6-1,0.6c-0.5,0-1-0.1-1.5-0.3
						c0,0-0.2,1.4-0.2,1.5c0.4,0.1,0.7,0.2,1.8,0.2c1.8,0,2.6-0.7,2.6-2.2c0-0.9-0.3-1.4-1.2-1.8c-0.7-0.3-0.8-0.4-0.8-0.7
						c0-0.4,0.3-0.5,0.8-0.5c0.3,0,0.8,0,1.2,0.1l0.2-1.5c-0.4-0.1-1.1-0.1-1.5-0.1C15,13.7,14.3,14.7,14.3,15.9z"/>
					<path d="M34.4,13.9c0.5,0,0.9,0.1,1.5,0.4l0.3-1.7c-0.3-0.1-1.1-0.7-1.9-0.7c-1.1,0-2.1,0.6-2.8,1.5c-1-0.3-1.4,0.3-1.9,1
						l-0.4,0.1c0-0.2,0.1-0.4,0.1-0.7h-1.6c-0.2,2-0.6,4-0.9,6.1l-0.1,0.4h1.7c0.3-1.9,0.4-3,0.5-3.8l0.6-0.4c0.1-0.4,0.4-0.5,1-0.5
						c-0.1,0.4-0.1,0.9-0.1,1.3c0,2.1,1.1,3.4,3,3.4c0.5,0,0.9-0.1,1.5-0.2l0.3-1.8c-0.6,0.3-1,0.4-1.5,0.4c-1,0-1.6-0.7-1.6-1.9
						C32.3,15.1,33.2,13.9,34.4,13.9z"/>
					<path d="M48.9,12.4l-0.4,2.3c-0.5-0.6-1-1.1-1.6-1.1c-0.9,0-1.6,0.7-2.2,1.6c-0.7-0.1-1.5-0.4-1.5-0.4v0c0.1-0.5,0.1-0.9,0.1-1
						h-1.6c-0.2,2-0.6,4-0.9,6.1l-0.1,0.4h1.7c0.2-1.5,0.4-2.7,0.5-3.7c0.6-0.5,0.9-1,1.5-1c-0.3,0.6-0.4,1.4-0.4,2.1
						c0,1.6,0.8,2.7,2.1,2.7c0.6,0,1.1-0.2,1.6-0.7l-0.1,0.6h1.6l1.3-8H48.9z M46.8,18.9c-0.6,0-0.9-0.4-0.9-1.3
						c0-1.3,0.6-2.2,1.3-2.2c0.6,0,0.9,0.4,0.9,1.3C48.1,18,47.6,18.9,46.8,18.9z"/>
				</g>
				<g>
					<polygon fill="#FFFFFF" points="8.4,19.9 6.6,19.9 7.6,13.8 5.4,19.9 4.3,19.9 4.1,13.8 3.1,19.9 1.5,19.9 2.8,11.9 5.3,11.9 
						5.4,16.9 7,11.9 9.7,11.9 					"/>
					<path fill="#FFFFFF" d="M12.6,17c-0.2,0-0.3,0-0.4,0c-1,0-1.5,0.3-1.5,1c0,0.4,0.2,0.7,0.6,0.7C12,18.6,12.5,18,12.6,17z
						 M13.8,19.9c-0.2,0-1.4,0-1.4,0l0-0.7c-0.4,0.5-1,0.8-1.8,0.8c-0.9,0-1.6-0.7-1.6-1.8c0-1.6,1.1-2.5,3-2.5c0.2,0,0.4,0,0.7,0
						c0.1-0.2,0.1-0.3,0.1-0.4c0-0.4-0.3-0.6-1.1-0.6c-0.8,0-1.5,0.2-1.8,0.3c0-0.1,0.2-1.5,0.2-1.5c0.9-0.3,1.4-0.3,2-0.3
						c1.5,0,2.2,0.7,2.2,1.9c0,0.3-0.1,0.7-0.1,1.3C14.2,17.4,13.9,19.4,13.8,19.9z"/>
					<path fill="#FFFFFF" d="M36.7,12.1l-0.3,1.7c-0.6-0.3-1.1-0.4-1.5-0.4c-1.3,0-2.2,1.2-2.2,3c0,1.2,0.6,1.9,1.6,1.9
						c0.4,0,0.9-0.1,1.5-0.4l-0.3,1.8c-0.6,0.2-1,0.2-1.5,0.2c-1.8,0-3-1.3-3-3.4c0-2.9,1.6-4.9,3.9-4.9
						C35.6,11.7,36.5,12,36.7,12.1z"/>
					<path fill="#FFFFFF" d="M39.5,17c-0.2,0-0.3,0-0.4,0c-1,0-1.5,0.3-1.5,1c0,0.4,0.2,0.7,0.6,0.7C39,18.6,39.5,18,39.5,17z
						 M40.7,19.9c-0.2,0-1.4,0-1.4,0l0-0.7c-0.4,0.5-1,0.8-1.8,0.8c-0.9,0-1.6-0.7-1.6-1.8c0-1.6,1.1-2.5,3-2.5c0.2,0,0.4,0,0.7,0
						c0.1-0.2,0.1-0.3,0.1-0.4c0-0.4-0.3-0.6-1.1-0.6c-0.8,0-1.5,0.2-1.8,0.3c0-0.1,0.2-1.5,0.2-1.5c0.9-0.3,1.4-0.3,2-0.3
						c1.5,0,2.2,0.7,2.2,1.9c0,0.3-0.1,0.7-0.1,1.3C41.1,17.4,40.8,19.4,40.7,19.9z"/>
					<path fill="#FFFFFF" d="M21.4,19.8c-0.5,0.1-0.8,0.2-1.2,0.2c-0.9,0-1.4-0.5-1.4-1.4c0-0.3,0.1-1,0.2-1.7
						c0.1-0.6,0.7-4.4,0.7-4.4h1.7l-0.2,1h0.9L21.9,15h-0.9c-0.2,1.2-0.5,2.8-0.5,3c0,0.3,0.2,0.5,0.6,0.5c0.2,0,0.3,0,0.5-0.1
						L21.4,19.8z"/>
					<path fill="#FFFFFF" d="M26.6,19.7C26,19.9,25.5,20,24.9,20C23,20,22,19,22,17.1c0-2.2,1.3-3.9,3-3.9c1.4,0,2.3,0.9,2.3,2.4
						c0,0.5-0.1,0.9-0.2,1.6h-3.4c-0.1,0.9,0.5,1.3,1.5,1.3c0.6,0,1.2-0.1,1.8-0.4L26.6,19.7z M25.7,15.9c0-0.1,0.2-1.2-0.8-1.2
						c-0.5,0-0.9,0.4-1.1,1.2H25.7z"/>
					<path fill="#FFFFFF" d="M14.8,15.5c0,0.8,0.4,1.4,1.3,1.8c0.7,0.3,0.8,0.4,0.8,0.7c0,0.4-0.3,0.6-1,0.6c-0.5,0-1-0.1-1.5-0.3
						c0,0-0.2,1.4-0.2,1.5c0.4,0.1,0.7,0.2,1.8,0.2c1.8,0,2.6-0.7,2.6-2.2c0-0.9-0.3-1.4-1.2-1.8c-0.7-0.3-0.8-0.4-0.8-0.7
						c0-0.4,0.3-0.5,0.8-0.5c0.3,0,0.8,0,1.2,0.1l0.2-1.5c-0.4-0.1-1.1-0.1-1.5-0.1C15.5,13.3,14.8,14.3,14.8,15.5z"/>
					<path fill="#FFFFFF" d="M49.8,19.9h-1.6l0.1-0.6c-0.5,0.5-0.9,0.7-1.6,0.7c-1.2,0-2.1-1.1-2.1-2.7c0-2.2,1.3-4,2.8-4
						c0.7,0,1.2,0.3,1.6,0.9l0.4-2.3h1.7L49.8,19.9z M47.3,18.4c0.8,0,1.4-0.9,1.4-2.2c0-0.8-0.3-1.3-0.9-1.3
						c-0.8,0-1.3,0.9-1.3,2.2C46.4,18,46.7,18.4,47.3,18.4z"/>
					<path fill="#FFFFFF" d="M42.3,13.4c-0.2,2-0.6,4-0.9,6.1l-0.1,0.4H43c0.6-4,0.8-4.7,1.7-4.7c0.2-0.8,0.4-1.5,0.6-1.9
						c-0.7-0.1-1.1,0.3-1.6,1c0-0.3,0.1-0.7,0.1-1H42.3z"/>
					<path fill="#FFFFFF" d="M28.2,13.4c-0.2,2-0.6,4-0.9,6.1l-0.1,0.4H29c0.6-4,0.8-4.7,1.7-4.7c0.2-0.8,0.4-1.5,0.6-1.9
						c-0.7-0.1-1.1,0.3-1.6,1c0-0.3,0.1-0.7,0.1-1H28.2z"/>
					<g>
						<path fill="#FFFFFF" d="M50.5,19.4c0-0.3,0.2-0.5,0.5-0.5c0.3,0,0.5,0.2,0.5,0.5s-0.2,0.5-0.5,0.5
							C50.8,19.9,50.5,19.7,50.5,19.4z M51.1,19.8c0.2,0,0.4-0.2,0.4-0.4c0-0.2-0.2-0.4-0.4-0.4c-0.2,0-0.4,0.2-0.4,0.4
							C50.7,19.6,50.8,19.8,51.1,19.8z M51,19.6h-0.1v-0.4h0.2c0,0,0.1,0,0.1,0c0,0,0.1,0.1,0.1,0.1c0,0,0,0.1-0.1,0.1l0.1,0.2h-0.1
							l-0.1-0.2H51V19.6z M51,19.4L51,19.4c0.1,0,0.1,0,0.1,0c0,0,0,0,0-0.1c0,0,0,0,0,0c0,0,0,0-0.1,0H51V19.4z"/>
					</g>
				</g>
			</g>
		</g>
	</g>
	<g>
		<path fill="#808080" d="M62.4,0.3c0-0.1,0.1-0.2,0.2-0.2h5.1c1.4,0,2.5,0.3,3.2,1C71.6,1.8,72,2.7,72,3.8c0,0.8-0.2,1.5-0.5,2
			c-0.4,0.5-0.8,0.9-1.4,1.1v0c0.2,0.1,0.5,0.2,0.7,0.4c0.3,0.2,0.5,0.4,0.7,0.7s0.4,0.6,0.5,1s0.2,0.8,0.2,1.3c0,1.3-0.4,2.4-1.2,3
			c-0.8,0.7-2,1-3.5,1h-5c-0.1,0-0.2-0.1-0.2-0.2V0.3z M67.6,6.2c0.8,0,1.4-0.2,1.8-0.6s0.7-0.9,0.7-1.6c0-0.7-0.2-1.2-0.7-1.6
			c-0.4-0.4-1-0.6-1.8-0.6h-3.2c-0.1,0-0.1,0-0.1,0.1v4.2c0,0.1,0,0.1,0.1,0.1H67.6z M64.3,12.5c0,0.1,0,0.1,0.1,0.1h3.3
			c0.9,0,1.5-0.2,2-0.6s0.7-1,0.7-1.7c0-0.7-0.2-1.3-0.7-1.7c-0.4-0.4-1.1-0.6-2-0.6h-3.3c-0.1,0-0.1,0-0.1,0.1V12.5z"/>
		<path fill="#808080" d="M80.6,14.4c-0.1,0-0.2-0.1-0.2-0.2v-0.9h0c-0.3,0.4-0.6,0.8-1.1,1s-1,0.4-1.7,0.4c-1.1,0-2-0.3-2.6-1
			c-0.6-0.7-0.9-1.6-0.9-2.8V4.5c0-0.1,0.1-0.2,0.2-0.2h1.3c0.1,0,0.2,0.1,0.2,0.2v5.9c0,0.8,0.2,1.5,0.5,1.9
			c0.4,0.4,0.9,0.7,1.7,0.7c0.7,0,1.2-0.2,1.6-0.7c0.4-0.4,0.6-1,0.6-1.8v-6c0-0.1,0.1-0.2,0.2-0.2H82c0.1,0,0.2,0.1,0.2,0.2v9.6
			c0,0.1-0.1,0.2-0.2,0.2H80.6z"/>
		<path fill="#808080" d="M88.4,14.6c-0.5,0-0.9,0-1.4-0.1c-0.4-0.1-0.8-0.2-1.1-0.4c-0.3-0.1-0.7-0.3-0.9-0.5
			c-0.3-0.2-0.5-0.4-0.7-0.5c-0.1-0.1-0.1-0.2,0-0.3l0.9-0.9c0.1-0.1,0.2-0.1,0.3,0c0.4,0.3,0.8,0.6,1.4,0.8
			c0.5,0.2,1.1,0.3,1.7,0.3c0.7,0,1.3-0.1,1.7-0.4c0.4-0.3,0.5-0.7,0.5-1.1c0-0.4-0.1-0.7-0.4-0.9s-0.8-0.4-1.6-0.5L87.7,10
			c-1-0.1-1.7-0.4-2.2-0.9c-0.5-0.5-0.8-1.1-0.8-2c0-1,0.3-1.7,1-2.3c0.7-0.5,1.6-0.8,2.8-0.8c0.7,0,1.4,0.1,2,0.3
			C91,4.6,91.5,4.9,92,5.2c0.1,0.1,0.1,0.2,0,0.3l-0.7,0.9c-0.1,0.1-0.2,0.1-0.3,0c-0.3-0.2-0.7-0.4-1.2-0.6s-1-0.3-1.5-0.3
			c-0.6,0-1.1,0.1-1.4,0.4c-0.3,0.3-0.5,0.6-0.5,1c0,0.4,0.1,0.7,0.4,0.9c0.3,0.2,0.8,0.4,1.6,0.4l1,0.1c1,0.1,1.8,0.4,2.3,0.9
			c0.5,0.5,0.7,1.1,0.7,2c0,1-0.3,1.8-1,2.4C90.7,14.3,89.7,14.6,88.4,14.6z"/>
		<path fill="#808080" d="M94.6,2c-0.1,0-0.2-0.1-0.2-0.2V0.3c0-0.1,0.1-0.2,0.2-0.2h1.4c0.1,0,0.2,0.1,0.2,0.2v1.5
			C96.3,2,96.2,2,96.1,2H94.6z M94.7,14.4c-0.1,0-0.2-0.1-0.2-0.2V4.5c0-0.1,0.1-0.2,0.2-0.2H96c0.1,0,0.2,0.1,0.2,0.2v9.6
			c0,0.1-0.1,0.2-0.2,0.2H94.7z"/>
		<path fill="#808080" d="M105.5,14.4c-0.1,0-0.2-0.1-0.2-0.2V8.3c0-0.8-0.2-1.4-0.6-1.9c-0.4-0.4-0.9-0.7-1.7-0.7
			c-0.7,0-1.2,0.2-1.7,0.7c-0.4,0.4-0.6,1-0.6,1.8v6c0,0.1-0.1,0.2-0.2,0.2h-1.3c-0.1,0-0.2-0.1-0.2-0.2V4.5c0-0.1,0.1-0.2,0.2-0.2
			h1.3c0.1,0,0.2,0.1,0.2,0.2v0.9h0c0.2-0.4,0.6-0.7,1.1-1c0.5-0.3,1.1-0.4,1.7-0.4c1.1,0,1.9,0.3,2.6,1c0.6,0.7,0.9,1.6,0.9,2.8
			v6.3c0,0.1-0.1,0.2-0.2,0.2H105.5z"/>
		<path fill="#808080" d="M113.4,14.6c-1,0-1.9-0.2-2.6-0.7c-0.7-0.5-1.2-1.1-1.5-2c-0.1-0.3-0.2-0.7-0.3-1.1
			c-0.1-0.4-0.1-0.9-0.1-1.5s0-1.1,0.1-1.5s0.1-0.8,0.2-1.1c0.3-0.9,0.8-1.6,1.5-2c0.7-0.5,1.5-0.7,2.5-0.7s1.8,0.2,2.5,0.7
			c0.7,0.5,1.2,1.1,1.5,2c0.1,0.2,0.1,0.3,0.1,0.5c0,0.2,0.1,0.4,0.1,0.6s0,0.5,0.1,0.8c0,0.3,0,0.6,0,1c0,0.1-0.1,0.2-0.2,0.2h-6.4
			c-0.1,0-0.1,0-0.1,0.1c0,0.3,0,0.5,0,0.7s0.1,0.4,0.1,0.5c0.2,0.6,0.5,1,0.9,1.3c0.4,0.3,1,0.4,1.6,0.4c0.6,0,1.1-0.1,1.5-0.3
			s0.8-0.5,1-0.8c0.1-0.1,0.2-0.1,0.3,0l0.9,0.8c0.1,0.1,0.1,0.2,0,0.3c-0.4,0.5-0.9,0.9-1.6,1.2C115,14.4,114.3,14.6,113.4,14.6z
			 M115.6,8.5c0.1,0,0.1,0,0.1-0.1c0-0.5,0-0.8-0.1-1.1c-0.2-0.5-0.5-0.9-0.8-1.2c-0.4-0.3-0.9-0.4-1.5-0.4s-1.1,0.1-1.5,0.4
			c-0.4,0.3-0.7,0.7-0.8,1.2c-0.1,0.3-0.1,0.7-0.1,1.1c0,0.1,0,0.1,0.1,0.1H115.6z"/>
		<path fill="#808080" d="M123.1,14.6c-0.5,0-0.9,0-1.4-0.1c-0.4-0.1-0.8-0.2-1.1-0.4c-0.3-0.1-0.7-0.3-0.9-0.5
			c-0.3-0.2-0.5-0.4-0.7-0.5c-0.1-0.1-0.1-0.2,0-0.3l0.9-0.9c0.1-0.1,0.2-0.1,0.3,0c0.4,0.3,0.8,0.6,1.4,0.8
			c0.5,0.2,1.1,0.3,1.7,0.3c0.7,0,1.3-0.1,1.7-0.4c0.4-0.3,0.5-0.7,0.5-1.1c0-0.4-0.1-0.7-0.4-0.9s-0.8-0.4-1.6-0.5l-1.1-0.1
			c-1-0.1-1.7-0.4-2.2-0.9c-0.5-0.5-0.8-1.1-0.8-2c0-1,0.3-1.7,1-2.3c0.7-0.5,1.6-0.8,2.8-0.8c0.7,0,1.4,0.1,2,0.3
			c0.6,0.2,1.1,0.5,1.5,0.8c0.1,0.1,0.1,0.2,0,0.3L126,6.4c-0.1,0.1-0.2,0.1-0.3,0c-0.3-0.2-0.7-0.4-1.2-0.6s-1-0.3-1.5-0.3
			c-0.6,0-1.1,0.1-1.4,0.4c-0.3,0.3-0.5,0.6-0.5,1c0,0.4,0.1,0.7,0.4,0.9c0.3,0.2,0.8,0.4,1.6,0.4l1,0.1c1,0.1,1.8,0.4,2.3,0.9
			c0.5,0.5,0.7,1.1,0.7,2c0,1-0.3,1.8-1,2.4C125.4,14.3,124.4,14.6,123.1,14.6z"/>
		<path fill="#808080" d="M132.7,14.6c-0.5,0-0.9,0-1.4-0.1c-0.4-0.1-0.8-0.2-1.1-0.4c-0.3-0.1-0.7-0.3-0.9-0.5
			c-0.3-0.2-0.5-0.4-0.7-0.5c-0.1-0.1-0.1-0.2,0-0.3l0.9-0.9c0.1-0.1,0.2-0.1,0.3,0c0.4,0.3,0.8,0.6,1.4,0.8
			c0.5,0.2,1.1,0.3,1.7,0.3c0.7,0,1.3-0.1,1.7-0.4c0.4-0.3,0.5-0.7,0.5-1.1c0-0.4-0.1-0.7-0.4-0.9s-0.8-0.4-1.6-0.5l-1.1-0.1
			c-1-0.1-1.7-0.4-2.2-0.9c-0.5-0.5-0.8-1.1-0.8-2c0-1,0.3-1.7,1-2.3c0.7-0.5,1.6-0.8,2.8-0.8c0.7,0,1.4,0.1,2,0.3
			c0.6,0.2,1.1,0.5,1.5,0.8c0.1,0.1,0.1,0.2,0,0.3l-0.7,0.9c-0.1,0.1-0.2,0.1-0.3,0c-0.3-0.2-0.7-0.4-1.2-0.6s-1-0.3-1.5-0.3
			c-0.6,0-1.1,0.1-1.4,0.4c-0.3,0.3-0.5,0.6-0.5,1c0,0.4,0.1,0.7,0.4,0.9c0.3,0.2,0.8,0.4,1.6,0.4l1,0.1c1,0.1,1.8,0.4,2.3,0.9
			c0.5,0.5,0.7,1.1,0.7,2c0,1-0.3,1.8-1,2.4C135,14.3,134,14.6,132.7,14.6z"/>
	</g>
	<g>
		<path fill="#FF9801" d="M62.4,17.4c0-0.1,0.1-0.2,0.2-0.2H64c0.2,0,0.3,0.1,0.4,0.2l6.5,10.7h0.1V17.4c0-0.1,0.1-0.2,0.2-0.2h1.3
			c0.1,0,0.2,0.1,0.2,0.2v13.9c0,0.1-0.1,0.2-0.2,0.2h-1.3c-0.2,0-0.3-0.1-0.4-0.2l-6.5-10.7h-0.1v10.7c0,0.1-0.1,0.2-0.2,0.2h-1.3
			c-0.1,0-0.2-0.1-0.2-0.2V17.4z"/>
		<path fill="#FF9801" d="M79.3,31.7c-1,0-1.9-0.2-2.6-0.7c-0.7-0.5-1.2-1.1-1.5-2c-0.1-0.3-0.2-0.7-0.3-1.1C75,27.5,75,27,75,26.4
			s0-1.1,0.1-1.5s0.1-0.8,0.2-1.1c0.3-0.9,0.8-1.6,1.5-2c0.7-0.5,1.5-0.7,2.5-0.7s1.8,0.2,2.5,0.7c0.7,0.5,1.2,1.1,1.5,2
			c0.1,0.2,0.1,0.3,0.1,0.5c0,0.2,0.1,0.4,0.1,0.6s0,0.5,0.1,0.8c0,0.3,0,0.6,0,1c0,0.1-0.1,0.2-0.2,0.2h-6.4c-0.1,0-0.1,0-0.1,0.1
			c0,0.3,0,0.5,0,0.7s0.1,0.4,0.1,0.5c0.2,0.6,0.5,1,0.9,1.3c0.4,0.3,1,0.4,1.6,0.4c0.6,0,1.1-0.1,1.5-0.3s0.8-0.5,1-0.8
			c0.1-0.1,0.2-0.1,0.3,0l0.9,0.8c0.1,0.1,0.1,0.2,0,0.3c-0.4,0.5-0.9,0.9-1.6,1.2C81,31.5,80.2,31.7,79.3,31.7z M81.6,25.6
			c0.1,0,0.1,0,0.1-0.1c0-0.5,0-0.8-0.1-1.1c-0.2-0.5-0.5-0.9-0.8-1.2c-0.4-0.3-0.9-0.4-1.5-0.4s-1.1,0.1-1.5,0.4
			c-0.4,0.3-0.7,0.7-0.8,1.2c-0.1,0.3-0.1,0.7-0.1,1.1c0,0.1,0,0.1,0.1,0.1H81.6z"/>
		<path fill="#FF9801" d="M88.7,31.6c-1,0-1.7-0.2-2.1-0.7c-0.4-0.5-0.6-1.2-0.6-2.2V23c0-0.1,0-0.1-0.1-0.1H85
			c-0.1,0-0.2-0.1-0.2-0.2v-1c0-0.1,0.1-0.2,0.2-0.2h0.8c0.1,0,0.1,0,0.1-0.1v-2.8c0-0.1,0.1-0.2,0.2-0.2h1.3c0.1,0,0.2,0.1,0.2,0.2
			v2.8c0,0.1,0,0.1,0.1,0.1h1.6c0.1,0,0.2,0.1,0.2,0.2v1c0,0.1-0.1,0.2-0.2,0.2h-1.6c-0.1,0-0.1,0-0.1,0.1v5.7c0,0.5,0.1,0.8,0.3,1
			c0.2,0.2,0.5,0.3,1,0.3h0.4c0.1,0,0.2,0.1,0.2,0.2v1.2c0,0.1-0.1,0.2-0.2,0.2H88.7z"/>
		<path fill="#FF9801" d="M100.6,31.5c-0.1,0-0.2-0.1-0.3-0.2L98,24.1h0l-2.3,7.2c0,0.1-0.1,0.2-0.3,0.2h-1.2
			c-0.1,0-0.2-0.1-0.3-0.2l-3.1-9.6c0-0.1,0-0.2,0.1-0.2h1.4c0.1,0,0.2,0.1,0.3,0.2l2.2,7.3h0l2.3-7.3c0-0.1,0.1-0.2,0.3-0.2h1.1
			c0.1,0,0.2,0.1,0.3,0.2l2.3,7.3h0l2.2-7.3c0-0.1,0.1-0.2,0.3-0.2h1.4c0.1,0,0.2,0.1,0.1,0.2l-3.2,9.6c0,0.1-0.1,0.2-0.3,0.2H100.6
			z"/>
		<path fill="#FF9801" d="M110.7,31.7c-1,0-1.8-0.2-2.5-0.7c-0.7-0.5-1.2-1.1-1.5-2c-0.1-0.3-0.2-0.7-0.3-1.1
			c-0.1-0.4-0.1-0.9-0.1-1.5s0-1.1,0.1-1.4c0.1-0.4,0.1-0.7,0.3-1.1c0.3-0.9,0.8-1.5,1.5-2c0.7-0.5,1.5-0.7,2.5-0.7
			c1,0,1.8,0.2,2.5,0.7c0.7,0.5,1.2,1.1,1.5,2c0.1,0.4,0.2,0.7,0.3,1.1c0.1,0.4,0.1,0.9,0.1,1.4s0,1.1-0.1,1.5
			c-0.1,0.4-0.1,0.8-0.3,1.1c-0.3,0.9-0.8,1.5-1.5,2C112.5,31.5,111.7,31.7,110.7,31.7z M110.7,30.1c0.6,0,1-0.1,1.4-0.4
			s0.7-0.7,0.8-1.2c0.1-0.3,0.1-0.6,0.2-0.9c0-0.3,0.1-0.7,0.1-1.2c0-0.5,0-0.9-0.1-1.2s-0.1-0.6-0.2-0.9c-0.2-0.5-0.4-0.9-0.8-1.2
			s-0.9-0.4-1.4-0.4c-0.6,0-1,0.1-1.4,0.4c-0.4,0.3-0.7,0.7-0.8,1.2c-0.1,0.3-0.1,0.6-0.2,0.9c0,0.3-0.1,0.7-0.1,1.2
			c0,0.5,0,0.9,0.1,1.2c0,0.3,0.1,0.6,0.2,0.9c0.2,0.5,0.4,0.9,0.8,1.2C109.7,29.9,110.2,30.1,110.7,30.1z"/>
		<path fill="#FF9801" d="M117.6,31.5c-0.1,0-0.2-0.1-0.2-0.2v-9.6c0-0.1,0.1-0.2,0.2-0.2h1.3c0.1,0,0.2,0.1,0.2,0.2v1h0
			c0.2-0.4,0.6-0.8,1-1.1c0.4-0.3,1-0.4,1.7-0.4c0.4,0,0.8,0.1,1.1,0.2c0.4,0.1,0.7,0.3,0.9,0.6c0.1,0.1,0.1,0.2,0,0.3l-0.8,1
			c-0.1,0.1-0.2,0.1-0.3,0c-0.2-0.2-0.5-0.3-0.7-0.4s-0.5-0.1-0.8-0.1c-0.8,0-1.3,0.3-1.7,0.8s-0.5,1.2-0.5,2.1v5.5
			c0,0.1-0.1,0.2-0.2,0.2H117.6z"/>
		<path fill="#FF9801" d="M132.1,31.5c-0.1,0-0.3-0.1-0.3-0.2l-2.9-4.7l-1.7,2v2.6c0,0.1-0.1,0.2-0.2,0.2h-1.3
			c-0.1,0-0.2-0.1-0.2-0.2V17.4c0-0.1,0.1-0.2,0.2-0.2h1.3c0.1,0,0.2,0.1,0.2,0.2v8.9l4-4.7c0.1-0.1,0.2-0.2,0.4-0.2h1.6
			c0.1,0,0.1,0,0.1,0.1s0,0.1,0,0.1l-3.1,3.6l3.7,6c0,0,0,0.1,0,0.1c0,0-0.1,0.1-0.1,0.1H132.1z"/>
	</g>
</g>
</svg>
